<?xml version="1.0" encoding="utf-8"?>
<svg viewBox="0 0 500 500" xmlns="http://www.w3.org/2000/svg">
  <g transform="matrix(0.396856, 0, 0, 0.396856, 172.953552, 259.108551)" style=""/>
  <g transform="matrix(0.396856, 0, 0, 0.396856, 172.953552, 259.108551)" style=""/>
  <g transform="matrix(0.396856, 0, 0, 0.396856, 172.953552, 259.108551)" style=""/>
  <g transform="matrix(0.396856, 0, 0, 0.396856, 172.953552, 259.108551)" style=""/>
  <g transform="matrix(0.396856, 0, 0, 0.396856, 172.953552, 259.108551)" style=""/>
  <g transform="matrix(0.396856, 0, 0, 0.396856, 172.953552, 259.108551)" style=""/>
  <g transform="matrix(0.396856, 0, 0, 0.396856, 172.953552, 259.108551)" style=""/>
  <g transform="matrix(0.396856, 0, 0, 0.396856, 172.953552, 259.108551)" style=""/>
  <g transform="matrix(0.396856, 0, 0, 0.396856, 172.953552, 259.108551)" style=""/>
  <g transform="matrix(0.396856, 0, 0, 0.396856, 172.953552, 259.108551)" style=""/>
  <g transform="matrix(0.396856, 0, 0, 0.396856, 172.953552, 259.108551)" style=""/>
  <g transform="matrix(0.396856, 0, 0, 0.396856, 172.953552, 259.108551)" style=""/>
  <g transform="matrix(0.396856, 0, 0, 0.396856, 172.953552, 259.108551)" style=""/>
  <g transform="matrix(0.396856, 0, 0, 0.396856, 172.953552, 259.108551)" style=""/>
  <g transform="matrix(0.396856, 0, 0, 0.396856, 172.953552, 259.108551)" style=""/>
  <g transform="matrix(-0.396856, 0, 0, -0.396856, 352.470337, 236.887665)" style=""/>
  <g transform="matrix(-0.396856, 0, 0, -0.396856, 352.470337, 236.887665)" style=""/>
  <g transform="matrix(-0.396856, 0, 0, -0.396856, 352.470337, 236.887665)" style=""/>
  <g transform="matrix(-0.396856, 0, 0, -0.396856, 352.470337, 236.887665)" style=""/>
  <g transform="matrix(-0.396856, 0, 0, -0.396856, 352.470337, 236.887665)" style=""/>
  <g transform="matrix(-0.396856, 0, 0, -0.396856, 352.470337, 236.887665)" style=""/>
  <g transform="matrix(-0.396856, 0, 0, -0.396856, 352.470337, 236.887665)" style=""/>
  <g transform="matrix(-0.396856, 0, 0, -0.396856, 352.470337, 236.887665)" style=""/>
  <g transform="matrix(-0.396856, 0, 0, -0.396856, 352.470337, 236.887665)" style=""/>
  <g transform="matrix(-0.396856, 0, 0, -0.396856, 352.470337, 236.887665)" style=""/>
  <g transform="matrix(-0.396856, 0, 0, -0.396856, 352.470337, 236.887665)" style=""/>
  <g transform="matrix(-0.396856, 0, 0, -0.396856, 352.470337, 236.887665)" style=""/>
  <g transform="matrix(-0.396856, 0, 0, -0.396856, 352.470337, 236.887665)" style=""/>
  <g transform="matrix(-0.396856, 0, 0, -0.396856, 352.470337, 236.887665)" style=""/>
  <g transform="matrix(-0.396856, 0, 0, -0.396856, 352.470337, 236.887665)" style=""/>
  <g transform="matrix(10.937344, 0, 0, 10.937344, 33.492069, 29.447317)" style=""/>
  <g transform="matrix(11.427407, 0, 0, 11.427407, 22.153341, 24.020864)" style="">
    <circle cx="20" cy="20" fill="#d7f7e9" r="20"/>
    <path d="M22.8 11.1c1.5 1.5 2.2 3.8 2 6.8L28 21c.2.2.3.4.4.7s.1.5 0 .8L27 26.7c-.1.3-.3.6-.6.7-.3.2-.6.2-.9.2s-.6-.2-.8-.4l-1.6-1.6-.6 1.5c-.1.2-.3.3-.5.3h-3.6c-.2 0-.4-.1-.5-.3l-.6-1.5-1.6 1.6c-.2.2-.5.4-.8.4s-.6 0-.9-.2-.5-.4-.6-.7L12 22.5c-.1-.2-.1-.5 0-.8s.2-.5.4-.7l3.2-3.2c-.2-3 .5-5.2 2-6.8.5-.5.9-.8 1.2-1.1s.7-.5 1.3-.9c.2-.1.4-.1.6 0 .6.4 1.1.7 1.3.9s.3.7.8 1.2zm-8.2 14.5l1.9-1.9c-.4-1.4-.8-2.6-1-3.8L13.4 22zm4.4.1h2c1.2-2.8 1.8-5.3 2-7.6.2-2.7-.3-4.7-1.5-5.9l-.7-.7c-.2-.2-.5-.4-.8-.6-.3.2-.6.4-.8.6-.2.1-.4.4-.7.7-1.2 1.2-1.7 3.2-1.5 5.9.1 2.4.8 4.9 2 7.6zm7.6-3.6L24.5 20c-.2 1.2-.5 2.5-1 3.8l1.9 1.9c0-.1 1.2-3.6 1.2-3.6zm-7.8-7.9c.3-.3.7-.5 1.2-.5s.9.2 1.2.5.5.7.5 1.2-.2.9-.5 1.2-.7.5-1.2.5-.9-.2-1.2-.5-.5-.7-.5-1.2.2-.8.5-1.2z" fill="#1dbf73" opacity=".902"/>
  </g>
  <g transform="matrix(0.525976, 0, 0, 0.525976, 173.908798, 31.426563)" style=""/>
</svg>