<?xml version="1.0" encoding="utf-8"?>
<svg viewBox="0 0 500 500" xmlns="http://www.w3.org/2000/svg">
  <g transform="matrix(0.396856, 0, 0, 0.396856, 172.953552, 259.108551)" style=""/>
  <g transform="matrix(0.396856, 0, 0, 0.396856, 172.953552, 259.108551)" style=""/>
  <g transform="matrix(0.396856, 0, 0, 0.396856, 172.953552, 259.108551)" style=""/>
  <g transform="matrix(0.396856, 0, 0, 0.396856, 172.953552, 259.108551)" style=""/>
  <g transform="matrix(0.396856, 0, 0, 0.396856, 172.953552, 259.108551)" style=""/>
  <g transform="matrix(0.396856, 0, 0, 0.396856, 172.953552, 259.108551)" style=""/>
  <g transform="matrix(0.396856, 0, 0, 0.396856, 172.953552, 259.108551)" style=""/>
  <g transform="matrix(0.396856, 0, 0, 0.396856, 172.953552, 259.108551)" style=""/>
  <g transform="matrix(0.396856, 0, 0, 0.396856, 172.953552, 259.108551)" style=""/>
  <g transform="matrix(0.396856, 0, 0, 0.396856, 172.953552, 259.108551)" style=""/>
  <g transform="matrix(0.396856, 0, 0, 0.396856, 172.953552, 259.108551)" style=""/>
  <g transform="matrix(0.396856, 0, 0, 0.396856, 172.953552, 259.108551)" style=""/>
  <g transform="matrix(0.396856, 0, 0, 0.396856, 172.953552, 259.108551)" style=""/>
  <g transform="matrix(0.396856, 0, 0, 0.396856, 172.953552, 259.108551)" style=""/>
  <g transform="matrix(0.396856, 0, 0, 0.396856, 172.953552, 259.108551)" style=""/>
  <g transform="matrix(-0.396856, 0, 0, -0.396856, 352.470337, 236.887665)" style=""/>
  <g transform="matrix(-0.396856, 0, 0, -0.396856, 352.470337, 236.887665)" style=""/>
  <g transform="matrix(-0.396856, 0, 0, -0.396856, 352.470337, 236.887665)" style=""/>
  <g transform="matrix(-0.396856, 0, 0, -0.396856, 352.470337, 236.887665)" style=""/>
  <g transform="matrix(-0.396856, 0, 0, -0.396856, 352.470337, 236.887665)" style=""/>
  <g transform="matrix(-0.396856, 0, 0, -0.396856, 352.470337, 236.887665)" style=""/>
  <g transform="matrix(-0.396856, 0, 0, -0.396856, 352.470337, 236.887665)" style=""/>
  <g transform="matrix(-0.396856, 0, 0, -0.396856, 352.470337, 236.887665)" style=""/>
  <g transform="matrix(-0.396856, 0, 0, -0.396856, 352.470337, 236.887665)" style=""/>
  <g transform="matrix(-0.396856, 0, 0, -0.396856, 352.470337, 236.887665)" style=""/>
  <g transform="matrix(-0.396856, 0, 0, -0.396856, 352.470337, 236.887665)" style=""/>
  <g transform="matrix(-0.396856, 0, 0, -0.396856, 352.470337, 236.887665)" style=""/>
  <g transform="matrix(-0.396856, 0, 0, -0.396856, 352.470337, 236.887665)" style=""/>
  <g transform="matrix(-0.396856, 0, 0, -0.396856, 352.470337, 236.887665)" style=""/>
  <g transform="matrix(-0.396856, 0, 0, -0.396856, 352.470337, 236.887665)" style=""/>
  <g transform="matrix(11.88341, 0, 0, 11.88341, 14.392133, 13.458996)" style="">
    <circle cx="20" cy="20" fill="#d7f7e9" r="20"/>
    <path d="M19.7 11c1.6 0 3 .4 4.4 1.2 1.3.8 2.4 1.8 3.2 3.2s1.2 2.8 1.2 4.4-.4 3-1.2 4.4c-.8 1.3-1.8 2.4-3.2 3.2s-2.8 1.2-4.4 1.2-3-.4-4.4-1.2c-1.3-.8-2.4-1.8-3.2-3.2S11 21.3 11 19.7s.4-3 1.2-4.4 1.8-2.4 3.2-3.2 2.7-1.1 4.3-1.1zm0 15.7c1.3 0 2.4-.3 3.5-.9s1.9-1.5 2.6-2.6.9-2.2.9-3.5-.3-2.4-.9-3.5-1.5-1.9-2.6-2.6-2.2-.9-3.5-.9-2.4.3-3.5.9-1.9 1.5-2.6 2.6c-.6 1.1-.9 2.2-.9 3.5s.3 2.4.9 3.5 1.5 1.9 2.6 2.6 2.3.9 3.5.9zm-.8-5.8c-.1-.1-.2-.2-.2-.4v-5.8c0-.1 0-.2.1-.3s.2-.1.3-.1h1.1c.1 0 .2 0 .3.1s.1.2.1.3v5l2.4 1.7c.1.1.1.2.2.3s0 .2-.1.3l-.6 1c-.1.1-.2.2-.3.2s-.2 0-.3-.1l-3-2.2z" fill="#1dbf73"/>
  </g>
</svg>