<?xml version="1.0" encoding="utf-8"?>
<svg viewBox="0 0 500 500" xmlns="http://www.w3.org/2000/svg">
  <g transform="matrix(0.396856, 0, 0, 0.396856, 172.953552, 259.108551)" style=""/>
  <g transform="matrix(0.396856, 0, 0, 0.396856, 172.953552, 259.108551)" style=""/>
  <g transform="matrix(0.396856, 0, 0, 0.396856, 172.953552, 259.108551)" style=""/>
  <g transform="matrix(0.396856, 0, 0, 0.396856, 172.953552, 259.108551)" style=""/>
  <g transform="matrix(0.396856, 0, 0, 0.396856, 172.953552, 259.108551)" style=""/>
  <g transform="matrix(0.396856, 0, 0, 0.396856, 172.953552, 259.108551)" style=""/>
  <g transform="matrix(0.396856, 0, 0, 0.396856, 172.953552, 259.108551)" style=""/>
  <g transform="matrix(0.396856, 0, 0, 0.396856, 172.953552, 259.108551)" style=""/>
  <g transform="matrix(0.396856, 0, 0, 0.396856, 172.953552, 259.108551)" style=""/>
  <g transform="matrix(0.396856, 0, 0, 0.396856, 172.953552, 259.108551)" style=""/>
  <g transform="matrix(0.396856, 0, 0, 0.396856, 172.953552, 259.108551)" style=""/>
  <g transform="matrix(0.396856, 0, 0, 0.396856, 172.953552, 259.108551)" style=""/>
  <g transform="matrix(0.396856, 0, 0, 0.396856, 172.953552, 259.108551)" style=""/>
  <g transform="matrix(0.396856, 0, 0, 0.396856, 172.953552, 259.108551)" style=""/>
  <g transform="matrix(0.396856, 0, 0, 0.396856, 172.953552, 259.108551)" style=""/>
  <g transform="matrix(-0.396856, 0, 0, -0.396856, 352.470337, 236.887665)" style=""/>
  <g transform="matrix(-0.396856, 0, 0, -0.396856, 352.470337, 236.887665)" style=""/>
  <g transform="matrix(-0.396856, 0, 0, -0.396856, 352.470337, 236.887665)" style=""/>
  <g transform="matrix(-0.396856, 0, 0, -0.396856, 352.470337, 236.887665)" style=""/>
  <g transform="matrix(-0.396856, 0, 0, -0.396856, 352.470337, 236.887665)" style=""/>
  <g transform="matrix(-0.396856, 0, 0, -0.396856, 352.470337, 236.887665)" style=""/>
  <g transform="matrix(-0.396856, 0, 0, -0.396856, 352.470337, 236.887665)" style=""/>
  <g transform="matrix(-0.396856, 0, 0, -0.396856, 352.470337, 236.887665)" style=""/>
  <g transform="matrix(-0.396856, 0, 0, -0.396856, 352.470337, 236.887665)" style=""/>
  <g transform="matrix(-0.396856, 0, 0, -0.396856, 352.470337, 236.887665)" style=""/>
  <g transform="matrix(-0.396856, 0, 0, -0.396856, 352.470337, 236.887665)" style=""/>
  <g transform="matrix(-0.396856, 0, 0, -0.396856, 352.470337, 236.887665)" style=""/>
  <g transform="matrix(-0.396856, 0, 0, -0.396856, 352.470337, 236.887665)" style=""/>
  <g transform="matrix(-0.396856, 0, 0, -0.396856, 352.470337, 236.887665)" style=""/>
  <g transform="matrix(-0.396856, 0, 0, -0.396856, 352.470337, 236.887665)" style=""/>
  <g transform="matrix(10.937344, 0, 0, 10.937344, 33.492069, 29.447317)" style="">
    <circle cx="20" cy="20" fill="#d7f7e9" r="20"/>
    <path d="M27.6 12c.1 0 .2 0 .3.1s.1.2.1.3v6c0 .1 0 .2-.1.3s-.2.1-.3.1h-6c-.1 0-.2 0-.3-.1s-.1-.2-.1-.3v-.9c0-.1 0-.2.1-.3s.2-.1.3-.1l4 .1c-.5-1.1-1.2-2-2.2-2.6-1-.7-2.1-1-3.3-1-1 0-1.9.2-2.7.6s-1.6 1-2.1 1.7-1 1.6-1.2 2.5c0 .1 0 .2-.1.2s-.2.1-.2.1h-.9c-.1 0-.2 0-.3-.1s-.1-.2-.1-.3c.2-1.2.7-2.3 1.4-3.2.7-1 1.6-1.7 2.7-2.3s2.2-.8 3.5-.8 2.6.3 3.7.9 2.1 1.5 2.8 2.5l-.1-3.1c0-.1 0-.2.1-.3s.2-.1.3-.1c-.2.1.7.1.7.1zm-.4 8.7c.1 0 .2 0 .3.1s.1.2.1.3c-.2 1.2-.7 2.3-1.4 3.2s-1.6 1.7-2.7 2.3-2.2.8-3.5.8-2.6-.3-3.7-.9-2.1-1.5-2.8-2.5l.1 3.1c0 .1 0 .2-.1.3s-.2.1-.3.1h-.9c-.1 0-.2 0-.3-.1s0-.2 0-.3v-6c0-.1 0-.2.1-.3s.2-.1.3-.1h6c.1 0 .2 0 .3.1s.1.2.1.3v.9c0 .1 0 .2-.1.3s-.2.1-.3.1l-4-.1c.5 1.1 1.2 2 2.2 2.6s2.1 1 3.3 1c1 0 1.9-.2 2.7-.6s1.6-1 2.1-1.7c.6-.7 1-1.6 1.2-2.5 0-.1 0-.2.1-.2s.2-.1.2-.1c.1-.1 1-.1 1-.1z" fill="#1dbf73"/>
  </g>
</svg>