<?xml version="1.0" encoding="utf-8"?>
<svg viewBox="0 0 500 500" xmlns="http://www.w3.org/2000/svg">
  <g transform="matrix(0.396856, 0, 0, 0.396856, 172.953552, 259.108551)" style=""/>
  <g transform="matrix(0.396856, 0, 0, 0.396856, 172.953552, 259.108551)" style=""/>
  <g transform="matrix(0.396856, 0, 0, 0.396856, 172.953552, 259.108551)" style=""/>
  <g transform="matrix(0.396856, 0, 0, 0.396856, 172.953552, 259.108551)" style=""/>
  <g transform="matrix(0.396856, 0, 0, 0.396856, 172.953552, 259.108551)" style=""/>
  <g transform="matrix(0.396856, 0, 0, 0.396856, 172.953552, 259.108551)" style=""/>
  <g transform="matrix(0.396856, 0, 0, 0.396856, 172.953552, 259.108551)" style=""/>
  <g transform="matrix(0.396856, 0, 0, 0.396856, 172.953552, 259.108551)" style=""/>
  <g transform="matrix(0.396856, 0, 0, 0.396856, 172.953552, 259.108551)" style=""/>
  <g transform="matrix(0.396856, 0, 0, 0.396856, 172.953552, 259.108551)" style=""/>
  <g transform="matrix(0.396856, 0, 0, 0.396856, 172.953552, 259.108551)" style=""/>
  <g transform="matrix(0.396856, 0, 0, 0.396856, 172.953552, 259.108551)" style=""/>
  <g transform="matrix(0.396856, 0, 0, 0.396856, 172.953552, 259.108551)" style=""/>
  <g transform="matrix(0.396856, 0, 0, 0.396856, 172.953552, 259.108551)" style=""/>
  <g transform="matrix(0.396856, 0, 0, 0.396856, 172.953552, 259.108551)" style=""/>
  <g transform="matrix(-0.396856, 0, 0, -0.396856, 352.470337, 236.887665)" style=""/>
  <g transform="matrix(-0.396856, 0, 0, -0.396856, 352.470337, 236.887665)" style=""/>
  <g transform="matrix(-0.396856, 0, 0, -0.396856, 352.470337, 236.887665)" style=""/>
  <g transform="matrix(-0.396856, 0, 0, -0.396856, 352.470337, 236.887665)" style=""/>
  <g transform="matrix(-0.396856, 0, 0, -0.396856, 352.470337, 236.887665)" style=""/>
  <g transform="matrix(-0.396856, 0, 0, -0.396856, 352.470337, 236.887665)" style=""/>
  <g transform="matrix(-0.396856, 0, 0, -0.396856, 352.470337, 236.887665)" style=""/>
  <g transform="matrix(-0.396856, 0, 0, -0.396856, 352.470337, 236.887665)" style=""/>
  <g transform="matrix(-0.396856, 0, 0, -0.396856, 352.470337, 236.887665)" style=""/>
  <g transform="matrix(-0.396856, 0, 0, -0.396856, 352.470337, 236.887665)" style=""/>
  <g transform="matrix(-0.396856, 0, 0, -0.396856, 352.470337, 236.887665)" style=""/>
  <g transform="matrix(-0.396856, 0, 0, -0.396856, 352.470337, 236.887665)" style=""/>
  <g transform="matrix(-0.396856, 0, 0, -0.396856, 352.470337, 236.887665)" style=""/>
  <g transform="matrix(-0.396856, 0, 0, -0.396856, 352.470337, 236.887665)" style=""/>
  <g transform="matrix(-0.396856, 0, 0, -0.396856, 352.470337, 236.887665)" style=""/>
  <g transform="matrix(10.855867, 0, 0, 10.855867, 34.136105, 31.094788)" style="">
    <circle cx="20" cy="20" fill="#ddf0f6" r="20"/>
    <path d="M28.3 13.6c.5.5.7 1 .7 1.7s-.2 1.2-.7 1.7L17.2 28.1 12 29c-.3 0-.5 0-.7-.2s-.3-.5-.3-.8l.9-5.2L23 11.7c.5-.5 1-.7 1.7-.7s1.2.2 1.7.7zM18 22c-.1-.2-.2-.4-.2-.6s.1-.4.2-.6l4.2-4.2-1-1-6 5.9h1.4v1.7h1.7v1.4l5.9-6-1-1-4 4.4c-.2.1-.4.2-.6.2s-.4-.1-.6-.2zm-4.1 5.1l2.6-.4.6-.6v-1.5h-1.7v-1.7H14l-.6.6-.4 2.6c-.1 0 .9 1 .9 1zm13.3-11.2c.2-.2.2-.4.2-.6s-.1-.4-.3-.6l-1.9-1.9c-.2-.2-.4-.2-.6-.2s-.4.1-.6.2l-1.7 1.7 3.1 3.1z" fill="#6296d4"/>
  </g>
</svg>