<svg width="40" height="40" viewBox="0 0 40 40" fill="none" xmlns="http://www.w3.org/2000/svg"><path opacity=".15" fill-rule="evenodd" clip-rule="evenodd" d="M20 40c11.046 0 20-8.954 20-20S31.046 0 20 0 0 8.954 0 20s8.954 20 20 20z" fill="#1DBF73"/><path fill-rule="evenodd" clip-rule="evenodd" d="M17 23.233c1.86-.48 3.18-.105 4.501.27 1.634.464 3.268.928 5.92-.225a.98.98 0 00.579-.9v-9.415c0-.785-.837-1.191-1.544-.832-2.588 1.32-3.822.878-5.146.404-1.27-.455-2.623-.94-5.335.074a15.76 15.76 0 00-.947.391l-.028.012V24c.35-.174.682-.32 1-.443.35-.136.683-.242 1-.324zm0-2.052a8.669 8.669 0 011.584-.173c1.325-.022 2.426.278 3.286.521l.115.033c.843.238 1.423.402 2.088.433.512.024 1.127-.033 1.927-.307v-7.174c-.978.357-1.867.511-2.722.49-1.096-.028-2-.354-2.618-.577a25.53 25.53 0 00-.156-.056c-.644-.23-1.094-.365-1.69-.36-.425.004-1.004.083-1.814.356v6.814zM14 13a.999.999 0 10-2 0v14.5c0 .275.225.5.5.5h1c.275 0 .5-.225.5-.5V13z" fill="#1DBF73"/></svg>