<?xml version="1.0" encoding="utf-8"?>
<svg viewBox="0 0 500 500" xmlns="http://www.w3.org/2000/svg">
  <g transform="matrix(0.396856, 0, 0, 0.396856, 172.953552, 259.108551)" style=""/>
  <g transform="matrix(0.396856, 0, 0, 0.396856, 172.953552, 259.108551)" style=""/>
  <g transform="matrix(0.396856, 0, 0, 0.396856, 172.953552, 259.108551)" style=""/>
  <g transform="matrix(0.396856, 0, 0, 0.396856, 172.953552, 259.108551)" style=""/>
  <g transform="matrix(0.396856, 0, 0, 0.396856, 172.953552, 259.108551)" style=""/>
  <g transform="matrix(0.396856, 0, 0, 0.396856, 172.953552, 259.108551)" style=""/>
  <g transform="matrix(0.396856, 0, 0, 0.396856, 172.953552, 259.108551)" style=""/>
  <g transform="matrix(0.396856, 0, 0, 0.396856, 172.953552, 259.108551)" style=""/>
  <g transform="matrix(0.396856, 0, 0, 0.396856, 172.953552, 259.108551)" style=""/>
  <g transform="matrix(0.396856, 0, 0, 0.396856, 172.953552, 259.108551)" style=""/>
  <g transform="matrix(0.396856, 0, 0, 0.396856, 172.953552, 259.108551)" style=""/>
  <g transform="matrix(0.396856, 0, 0, 0.396856, 172.953552, 259.108551)" style=""/>
  <g transform="matrix(0.396856, 0, 0, 0.396856, 172.953552, 259.108551)" style=""/>
  <g transform="matrix(0.396856, 0, 0, 0.396856, 172.953552, 259.108551)" style=""/>
  <g transform="matrix(0.396856, 0, 0, 0.396856, 172.953552, 259.108551)" style=""/>
  <g transform="matrix(-0.396856, 0, 0, -0.396856, 352.470337, 236.887665)" style=""/>
  <g transform="matrix(-0.396856, 0, 0, -0.396856, 352.470337, 236.887665)" style=""/>
  <g transform="matrix(-0.396856, 0, 0, -0.396856, 352.470337, 236.887665)" style=""/>
  <g transform="matrix(-0.396856, 0, 0, -0.396856, 352.470337, 236.887665)" style=""/>
  <g transform="matrix(-0.396856, 0, 0, -0.396856, 352.470337, 236.887665)" style=""/>
  <g transform="matrix(-0.396856, 0, 0, -0.396856, 352.470337, 236.887665)" style=""/>
  <g transform="matrix(-0.396856, 0, 0, -0.396856, 352.470337, 236.887665)" style=""/>
  <g transform="matrix(-0.396856, 0, 0, -0.396856, 352.470337, 236.887665)" style=""/>
  <g transform="matrix(-0.396856, 0, 0, -0.396856, 352.470337, 236.887665)" style=""/>
  <g transform="matrix(-0.396856, 0, 0, -0.396856, 352.470337, 236.887665)" style=""/>
  <g transform="matrix(-0.396856, 0, 0, -0.396856, 352.470337, 236.887665)" style=""/>
  <g transform="matrix(-0.396856, 0, 0, -0.396856, 352.470337, 236.887665)" style=""/>
  <g transform="matrix(-0.396856, 0, 0, -0.396856, 352.470337, 236.887665)" style=""/>
  <g transform="matrix(-0.396856, 0, 0, -0.396856, 352.470337, 236.887665)" style=""/>
  <g transform="matrix(-0.396856, 0, 0, -0.396856, 352.470337, 236.887665)" style=""/>
  <g transform="matrix(11.179256, 0, 0, 11.179256, 24.570322, 20.839426)" style="">
    <circle cx="20" cy="20" fill="#ffe9f7" r="20"/>
    <path d="M28.9 16.8c0 .2.1.3.1.5v9.3c0 .5-.2.9-.5 1.2s-.7.5-1.2.5H12.7c-.5 0-.9-.2-1.2-.5-.3-.4-.5-.8-.5-1.2v-9.3c0-.2 0-.4.1-.5l1.8-5.3c.1-.4.3-.6.6-.8s.6-.3 1-.3h11c.4 0 .7.1 1 .3s.5.5.6.8c0-.1 1.8 5.3 1.8 5.3zm-1.7.2l-1.7-5.1h-4.7V17zm-12.7-5.1L12.8 17h6.4v-5.1zm-1.8 14.7h14.6v-7.9H12.7z" fill="#e774ba"/>
  </g>
</svg>